<svg id="visual" viewBox="0 0 1024 1366" width="1024" height="1366" xmlns="http://www.w3.org/2000/svg" xmlns:xlink="http://www.w3.org/1999/xlink" version="1.1"><path d="M0 643L73 643L73 547L146 547L146 343L219 343L219 179L293 179L293 233L366 233L366 602L439 602L439 288L512 288L512 452L585 452L585 383L658 383L658 479L731 479L731 233L805 233L805 302L878 302L878 274L951 274L951 479L1024 479L1024 479L1024 0L1024 0L951 0L951 0L878 0L878 0L805 0L805 0L731 0L731 0L658 0L658 0L585 0L585 0L512 0L512 0L439 0L439 0L366 0L366 0L293 0L293 0L219 0L219 0L146 0L146 0L73 0L73 0L0 0Z" fill="#ffffff"></path><path d="M0 834L73 834L73 684L146 684L146 561L219 561L219 411L293 411L293 329L366 329L366 766L439 766L439 520L512 520L512 520L585 520L585 588L658 588L658 739L731 739L731 397L805 397L805 506L878 506L878 452L951 452L951 588L1024 588L1024 657L1024 477L1024 477L951 477L951 272L878 272L878 300L805 300L805 231L731 231L731 477L658 477L658 381L585 381L585 450L512 450L512 286L439 286L439 600L366 600L366 231L293 231L293 177L219 177L219 341L146 341L146 545L73 545L73 641L0 641Z" fill="#cdead0"></path><path d="M0 957L73 957L73 807L146 807L146 670L219 670L219 684L293 684L293 506L366 506L366 875L439 875L439 739L512 739L512 670L585 670L585 793L658 793L658 834L731 834L731 752L805 752L805 711L878 711L878 629L951 629L951 834L1024 834L1024 807L1024 655L1024 586L951 586L951 450L878 450L878 504L805 504L805 395L731 395L731 737L658 737L658 586L585 586L585 518L512 518L512 518L439 518L439 764L366 764L366 327L293 327L293 409L219 409L219 559L146 559L146 682L73 682L73 832L0 832Z" fill="#9bd5a2"></path><path d="M0 1039L73 1039L73 1080L146 1080L146 821L219 821L219 903L293 903L293 793L366 793L366 1026L439 1026L439 807L512 807L512 957L585 957L585 1066L658 1066L658 971L731 971L731 1012L805 1012L805 834L878 834L878 848L951 848L951 1121L1024 1121L1024 930L1024 805L1024 832L951 832L951 627L878 627L878 709L805 709L805 750L731 750L731 832L658 832L658 791L585 791L585 668L512 668L512 737L439 737L439 873L366 873L366 504L293 504L293 682L219 682L219 668L146 668L146 805L73 805L73 955L0 955Z" fill="#64bf75"></path><path d="M0 1367L73 1367L73 1367L146 1367L146 1367L219 1367L219 1367L293 1367L293 1367L366 1367L366 1367L439 1367L439 1367L512 1367L512 1367L585 1367L585 1367L658 1367L658 1367L731 1367L731 1367L805 1367L805 1367L878 1367L878 1367L951 1367L951 1367L1024 1367L1024 1367L1024 928L1024 1119L951 1119L951 846L878 846L878 832L805 832L805 1010L731 1010L731 969L658 969L658 1064L585 1064L585 955L512 955L512 805L439 805L439 1024L366 1024L366 791L293 791L293 901L219 901L219 819L146 819L146 1078L73 1078L73 1037L0 1037Z" fill="#03a948"></path></svg>