<svg id="visual" viewBox="0 0 450 900" width="450" height="900" xmlns="http://www.w3.org/2000/svg" xmlns:xlink="http://www.w3.org/1999/xlink" version="1.1"><path d="M0 424L32 424L32 361L64 361L64 226L96 226L96 118L129 118L129 154L161 154L161 397L193 397L193 190L225 190L225 298L257 298L257 253L289 253L289 316L321 316L321 154L354 154L354 199L386 199L386 181L418 181L418 316L450 316L450 316L450 0L450 0L418 0L418 0L386 0L386 0L354 0L354 0L321 0L321 0L289 0L289 0L257 0L257 0L225 0L225 0L193 0L193 0L161 0L161 0L129 0L129 0L96 0L96 0L64 0L64 0L32 0L32 0L0 0Z" fill="#ffffff"></path><path d="M0 550L32 550L32 451L64 451L64 370L96 370L96 271L129 271L129 217L161 217L161 505L193 505L193 343L225 343L225 343L257 343L257 388L289 388L289 487L321 487L321 262L354 262L354 334L386 334L386 298L418 298L418 388L450 388L450 433L450 314L450 314L418 314L418 179L386 179L386 197L354 197L354 152L321 152L321 314L289 314L289 251L257 251L257 296L225 296L225 188L193 188L193 395L161 395L161 152L129 152L129 116L96 116L96 224L64 224L64 359L32 359L32 422L0 422Z" fill="#cdead0"></path><path d="M0 631L32 631L32 532L64 532L64 442L96 442L96 451L129 451L129 334L161 334L161 577L193 577L193 487L225 487L225 442L257 442L257 523L289 523L289 550L321 550L321 496L354 496L354 469L386 469L386 415L418 415L418 550L450 550L450 532L450 431L450 386L418 386L418 296L386 296L386 332L354 332L354 260L321 260L321 485L289 485L289 386L257 386L257 341L225 341L225 341L193 341L193 503L161 503L161 215L129 215L129 269L96 269L96 368L64 368L64 449L32 449L32 548L0 548Z" fill="#9bd5a2"></path><path d="M0 685L32 685L32 712L64 712L64 541L96 541L96 595L129 595L129 523L161 523L161 676L193 676L193 532L225 532L225 631L257 631L257 703L289 703L289 640L321 640L321 667L354 667L354 550L386 550L386 559L418 559L418 739L450 739L450 613L450 530L450 548L418 548L418 413L386 413L386 467L354 467L354 494L321 494L321 548L289 548L289 521L257 521L257 440L225 440L225 485L193 485L193 575L161 575L161 332L129 332L129 449L96 449L96 440L64 440L64 530L32 530L32 629L0 629Z" fill="#64bf75"></path><path d="M0 901L32 901L32 901L64 901L64 901L96 901L96 901L129 901L129 901L161 901L161 901L193 901L193 901L225 901L225 901L257 901L257 901L289 901L289 901L321 901L321 901L354 901L354 901L386 901L386 901L418 901L418 901L450 901L450 901L450 611L450 737L418 737L418 557L386 557L386 548L354 548L354 665L321 665L321 638L289 638L289 701L257 701L257 629L225 629L225 530L193 530L193 674L161 674L161 521L129 521L129 593L96 593L96 539L64 539L64 710L32 710L32 683L0 683Z" fill="#03a948"></path></svg>