<svg id="visual" viewBox="0 0 900 600" width="900" height="600" xmlns="http://www.w3.org/2000/svg" xmlns:xlink="http://www.w3.org/1999/xlink" version="1.1"><path d="M0 283L64 283L64 241L129 241L129 151L193 151L193 79L257 79L257 103L321 103L321 265L386 265L386 127L450 127L450 199L514 199L514 169L579 169L579 211L643 211L643 103L707 103L707 133L771 133L771 121L836 121L836 211L900 211L900 211L900 0L900 0L836 0L836 0L771 0L771 0L707 0L707 0L643 0L643 0L579 0L579 0L514 0L514 0L450 0L450 0L386 0L386 0L321 0L321 0L257 0L257 0L193 0L193 0L129 0L129 0L64 0L64 0L0 0Z" fill="#ffffff"></path><path d="M0 367L64 367L64 301L129 301L129 247L193 247L193 181L257 181L257 145L321 145L321 337L386 337L386 229L450 229L450 229L514 229L514 259L579 259L579 325L643 325L643 175L707 175L707 223L771 223L771 199L836 199L836 259L900 259L900 289L900 209L900 209L836 209L836 119L771 119L771 131L707 131L707 101L643 101L643 209L579 209L579 167L514 167L514 197L450 197L450 125L386 125L386 263L321 263L321 101L257 101L257 77L193 77L193 149L129 149L129 239L64 239L64 281L0 281Z" fill="#cdead0"></path><path d="M0 421L64 421L64 355L129 355L129 295L193 295L193 301L257 301L257 223L321 223L321 385L386 385L386 325L450 325L450 295L514 295L514 349L579 349L579 367L643 367L643 331L707 331L707 313L771 313L771 277L836 277L836 367L900 367L900 355L900 287L900 257L836 257L836 197L771 197L771 221L707 221L707 173L643 173L643 323L579 323L579 257L514 257L514 227L450 227L450 227L386 227L386 335L321 335L321 143L257 143L257 179L193 179L193 245L129 245L129 299L64 299L64 365L0 365Z" fill="#9bd5a2"></path><path d="M0 457L64 457L64 475L129 475L129 361L193 361L193 397L257 397L257 349L321 349L321 451L386 451L386 355L450 355L450 421L514 421L514 469L579 469L579 427L643 427L643 445L707 445L707 367L771 367L771 373L836 373L836 493L900 493L900 409L900 353L900 365L836 365L836 275L771 275L771 311L707 311L707 329L643 329L643 365L579 365L579 347L514 347L514 293L450 293L450 323L386 323L386 383L321 383L321 221L257 221L257 299L193 299L193 293L129 293L129 353L64 353L64 419L0 419Z" fill="#64bf75"></path><path d="M0 601L64 601L64 601L129 601L129 601L193 601L193 601L257 601L257 601L321 601L321 601L386 601L386 601L450 601L450 601L514 601L514 601L579 601L579 601L643 601L643 601L707 601L707 601L771 601L771 601L836 601L836 601L900 601L900 601L900 407L900 491L836 491L836 371L771 371L771 365L707 365L707 443L643 443L643 425L579 425L579 467L514 467L514 419L450 419L450 353L386 353L386 449L321 449L321 347L257 347L257 395L193 395L193 359L129 359L129 473L64 473L64 455L0 455Z" fill="#03a948"></path></svg>